<svg width="31" height="31" viewBox="0 0 31 31" fill="none" xmlns="http://www.w3.org/2000/svg">
<path d="M19.0667 6.66671C20.3691 6.92079 21.5659 7.55772 22.5042 8.49595C23.4424 9.43419 24.0793 10.6311 24.3334 11.9334M19.0667 1.33337C21.7724 1.63396 24.2955 2.84561 26.2217 4.76938C28.1479 6.69316 29.3628 9.21472 29.6667 11.92M28.3334 22.56V26.56C28.3349 26.9314 28.2589 27.2989 28.1101 27.6392C27.9613 27.9794 27.7431 28.2848 27.4695 28.5359C27.1959 28.7869 26.8728 28.978 26.5211 29.097C26.1693 29.2159 25.7966 29.2601 25.4267 29.2267C21.3239 28.7809 17.3827 27.3789 13.9201 25.1334C10.6985 23.0863 7.96719 20.3549 5.92007 17.1334C3.66671 13.655 2.2644 9.6947 1.82674 5.57337C1.79342 5.20466 1.83724 4.83305 1.95541 4.48221C2.07357 4.13136 2.2635 3.80896 2.51309 3.53554C2.76269 3.26211 3.06648 3.04365 3.40513 2.89407C3.74378 2.74449 4.10986 2.66706 4.48007 2.66671H8.48007C9.12715 2.66034 9.75446 2.88948 10.2451 3.31142C10.7357 3.73336 11.0562 4.3193 11.1467 4.96004C11.3156 6.24013 11.6287 7.49701 12.0801 8.70671C12.2595 9.18394 12.2983 9.70259 12.1919 10.2012C12.0856 10.6998 11.8386 11.1575 11.4801 11.52L9.78674 13.2134C11.6848 16.5514 14.4487 19.3153 17.7867 21.2134L19.4801 19.52C19.8426 19.1616 20.3003 18.9145 20.7989 18.8082C21.2975 18.7018 21.8162 18.7406 22.2934 18.92C23.5031 19.3714 24.76 19.6845 26.0401 19.8534C26.6878 19.9447 27.2793 20.271 27.7021 20.77C28.125 21.2691 28.3496 21.9061 28.3334 22.56Z" stroke="#016FBD" stroke-width="3" stroke-linecap="round" stroke-linejoin="round"/>
</svg>
