<svg width="31" height="31" viewBox="0 0 31 31" fill="none" xmlns="http://www.w3.org/2000/svg">
<path d="M19.0667 6.66683C20.3691 6.92092 21.5659 7.55784 22.5042 8.49608C23.4424 9.43431 24.0793 10.6312 24.3334 11.9335M19.0667 1.3335C21.7724 1.63408 24.2955 2.84573 26.2217 4.76951C28.1479 6.69328 29.3628 9.21484 29.6667 11.9202M28.3334 22.5602V26.5602C28.3349 26.9315 28.2589 27.2991 28.1101 27.6393C27.9613 27.9795 27.7431 28.2849 27.4695 28.536C27.1959 28.787 26.8728 28.9781 26.5211 29.0971C26.1693 29.2161 25.7966 29.2603 25.4267 29.2268C21.3239 28.781 17.3827 27.379 13.9201 25.1335C10.6985 23.0864 7.96719 20.3551 5.92007 17.1335C3.66671 13.6551 2.2644 9.69482 1.82674 5.5735C1.79342 5.20479 1.83724 4.83318 1.95541 4.48233C2.07357 4.13148 2.2635 3.80908 2.51309 3.53566C2.76269 3.26223 3.06648 3.04378 3.40513 2.89419C3.74378 2.74461 4.10986 2.66718 4.48007 2.66683H8.48007C9.12715 2.66046 9.75446 2.8896 10.2451 3.31154C10.7357 3.73348 11.0562 4.31943 11.1467 4.96016C11.3156 6.24025 11.6287 7.49713 12.0801 8.70683C12.2595 9.18406 12.2983 9.70272 12.1919 10.2013C12.0856 10.7 11.8386 11.1576 11.4801 11.5202L9.78674 13.2135C11.6848 16.5516 14.4487 19.3154 17.7867 21.2135L19.4801 19.5202C19.8426 19.1617 20.3003 18.9146 20.7989 18.8083C21.2975 18.7019 21.8162 18.7408 22.2934 18.9202C23.5031 19.3716 24.76 19.6847 26.0401 19.8535C26.6878 19.9449 27.2793 20.2711 27.7021 20.7702C28.125 21.2692 28.3496 21.9063 28.3334 22.5602Z" stroke="white" stroke-width="2" stroke-linecap="round" stroke-linejoin="round"/>
</svg>
