<svg width="634" height="655" viewBox="0 0 634 655" fill="none" xmlns="http://www.w3.org/2000/svg">
<path d="M300.413 622.607C300.415 622.607 300.415 622.607 300.416 622.607C300.375 622.414 300.343 622.221 300.318 622.031C300.343 622.223 300.375 622.415 300.413 622.607Z" fill="#E6F1F9"/>
<path d="M301.049 624.445C301.031 624.409 301.014 624.372 300.996 624.335C301.014 624.374 301.031 624.409 301.049 624.445Z" fill="#E6F1F9"/>
<path d="M300.612 623.364C300.715 623.692 300.84 624.011 300.986 624.312C300.838 624.004 300.715 623.686 300.613 623.364H300.612Z" fill="#E6F1F9"/>
<path d="M230.475 575.095C230.475 570.929 227.097 567.552 222.929 567.552C218.762 567.552 215.384 570.929 215.384 575.095C215.384 579.262 218.762 582.639 222.929 582.639C227.097 582.639 230.475 579.262 230.475 575.095Z" fill="#E6F1F9"/>
<path d="M394.616 517.52C394.616 513.354 391.237 509.977 387.07 509.977C382.903 509.977 379.524 513.354 379.524 517.52C379.524 521.687 382.903 525.064 387.07 525.064C391.237 525.064 394.616 521.687 394.616 517.52Z" fill="#E6F1F9"/>
<path d="M380.255 470.109C380.255 465.943 376.877 462.566 372.709 462.566C368.542 462.566 365.164 465.943 365.164 470.109C365.164 474.276 368.542 477.653 372.709 477.653C376.877 477.653 380.255 474.276 380.255 470.109Z" fill="#E6F1F9"/>
<path d="M549.512 470.269C549.512 466.103 546.133 462.725 541.966 462.725C537.799 462.725 534.42 466.103 534.42 470.269C534.42 474.435 537.799 477.813 541.966 477.813C546.133 477.813 549.512 474.435 549.512 470.269Z" fill="#E6F1F9"/>
<path d="M490.974 494.717C490.974 490.55 487.595 487.173 483.428 487.173C479.26 487.173 475.882 490.55 475.882 494.717C475.882 498.883 479.26 502.261 483.428 502.261C487.595 502.261 490.974 498.883 490.974 494.717Z" fill="#E6F1F9"/>
<path d="M506.488 436.959C506.488 432.793 503.11 429.415 498.943 429.415C494.775 429.415 491.397 432.793 491.397 436.959C491.397 441.126 494.775 444.503 498.943 444.503C503.11 444.503 506.488 441.126 506.488 436.959Z" fill="#E6F1F9"/>
<path d="M463.121 524.83C463.121 520.664 459.743 517.286 455.576 517.286C451.408 517.286 448.029 520.664 448.029 524.83C448.029 528.996 451.408 532.374 455.576 532.374C459.743 532.374 463.121 528.996 463.121 524.83Z" fill="#E6F1F9"/>
<path d="M586.144 470.269C586.144 466.103 582.765 462.725 578.598 462.725C574.43 462.725 571.052 466.103 571.052 470.269C571.052 474.435 574.43 477.813 578.598 477.813C582.765 477.813 586.144 474.435 586.144 470.269Z" fill="#E6F1F9"/>
<path d="M590.455 563.669C590.455 559.503 587.077 556.125 582.909 556.125C578.742 556.125 575.364 559.503 575.364 563.669C575.364 567.836 578.742 571.213 582.909 571.213C587.077 571.213 590.455 567.836 590.455 563.669Z" fill="#E6F1F9"/>
<path d="M295.503 470.063C295.503 465.896 292.125 462.519 287.958 462.519C283.79 462.519 280.412 465.896 280.412 470.063C280.412 474.229 283.79 477.607 287.958 477.607C292.125 477.607 295.503 474.229 295.503 470.063Z" fill="#E6F1F9"/>
<path d="M329.729 480.992C329.729 476.826 326.351 473.448 322.183 473.448C318.016 473.448 314.637 476.826 314.637 480.992C314.637 485.158 318.016 488.536 322.183 488.536C326.351 488.536 329.729 485.158 329.729 480.992Z" fill="#E6F1F9"/>
<path d="M243.365 518.703C243.365 514.537 239.986 511.159 235.819 511.159C231.652 511.159 228.273 514.537 228.273 518.703C228.273 522.87 231.652 526.247 235.819 526.247C239.986 526.247 243.365 522.87 243.365 518.703Z" fill="#E6F1F9"/>
<path d="M232.01 464.797C232.01 460.631 228.631 457.253 224.464 457.253C220.297 457.253 216.918 460.631 216.918 464.797C216.918 468.963 220.297 472.341 224.464 472.341C228.631 472.341 232.01 468.963 232.01 464.797Z" fill="#E6F1F9"/>
<path d="M160.021 384.486C160.021 380.32 156.643 376.943 152.475 376.943C148.308 376.943 144.929 380.32 144.929 384.486C144.929 388.653 148.308 392.03 152.475 392.03C156.643 392.03 160.021 388.653 160.021 384.486Z" fill="#E6F1F9"/>
<path d="M128.484 349.765C128.484 345.599 125.106 342.222 120.939 342.222C116.771 342.222 113.393 345.599 113.393 349.765C113.393 353.932 116.771 357.309 120.939 357.309C125.106 357.309 128.484 353.932 128.484 349.765Z" fill="#E6F1F9"/>
<path d="M15.5893 365.625C15.5893 361.458 12.211 358.08 8.04365 358.08C3.87637 358.08 0.498047 361.458 0.498047 365.625C0.498047 369.791 3.87637 373.168 8.04365 373.168C12.211 373.168 15.5893 369.791 15.5893 365.625Z" fill="#E6F1F9"/>
<path d="M62.6862 392.03C62.6862 387.864 59.3079 384.486 55.1407 384.486C50.9731 384.486 47.5947 387.864 47.5947 392.03C47.5947 396.196 50.9731 399.575 55.1407 399.575C59.3079 399.575 62.6862 396.196 62.6862 392.03Z" fill="#E6F1F9"/>
<path d="M176.062 235.805C176.062 231.639 172.684 228.261 168.516 228.261C164.349 228.261 160.971 231.639 160.971 235.805C160.971 239.971 164.349 243.349 168.516 243.349C172.684 243.349 176.062 239.971 176.062 235.805Z" fill="#E6F1F9"/>
<path d="M188.388 166.085C188.388 161.918 185.01 158.541 180.842 158.541C176.675 158.541 173.296 161.918 173.296 166.085C173.296 170.251 176.675 173.628 180.842 173.628C185.01 173.628 188.388 170.251 188.388 166.085Z" fill="#E6F1F9"/>
<path d="M90.2494 106.959C90.2494 102.793 86.8712 99.4157 82.7038 99.4157C78.5364 99.4157 75.1582 102.793 75.1582 106.959C75.1582 111.126 78.5364 114.504 82.7038 114.504C86.8712 114.504 90.2494 111.126 90.2494 106.959Z" fill="#E6F1F9"/>
<path d="M130.274 106.794C130.274 102.628 126.896 99.2495 122.728 99.2495C118.561 99.2495 115.183 102.628 115.183 106.794C115.183 110.96 118.561 114.338 122.728 114.338C126.896 114.338 130.274 110.96 130.274 106.794Z" fill="#E6F1F9"/>
<path d="M367.819 375.757C367.819 371.591 364.441 368.214 360.273 368.214C356.106 368.214 352.728 371.591 352.728 375.757C352.728 379.924 356.106 383.301 360.273 383.301C364.441 383.301 367.819 379.924 367.819 375.757Z" fill="#E6F1F9"/>
<path d="M372.589 347.48C372.589 343.314 369.211 339.936 365.043 339.936C360.876 339.936 357.498 343.314 357.498 347.48C357.498 351.646 360.876 355.024 365.043 355.024C369.211 355.024 372.589 351.646 372.589 347.48Z" fill="#E6F1F9"/>
<path d="M453.344 378.145C453.344 373.979 449.965 370.6 445.798 370.6C441.631 370.6 438.252 373.979 438.252 378.145C438.252 382.311 441.631 385.689 445.798 385.689C449.965 385.689 453.344 382.311 453.344 378.145Z" fill="#E6F1F9"/>
<path d="M413.09 380.43C413.09 376.264 409.711 372.887 405.544 372.887C401.377 372.887 397.998 376.264 397.998 380.43C397.998 384.597 401.377 387.974 405.544 387.974C409.711 387.974 413.09 384.597 413.09 380.43Z" fill="#E6F1F9"/>
<path d="M496.322 402.955C496.322 398.789 492.944 395.411 488.777 395.411C484.609 395.411 481.231 398.789 481.231 402.955C481.231 407.122 484.609 410.499 488.777 410.499C492.944 410.499 496.322 407.122 496.322 402.955Z" fill="#E6F1F9"/>
<path d="M512.579 338.085C512.579 333.918 509.2 330.54 505.033 330.54C500.865 330.54 497.487 333.918 497.487 338.085C497.487 342.251 500.865 345.628 505.033 345.628C509.2 345.628 512.579 342.251 512.579 338.085Z" fill="#E6F1F9"/>
<path d="M585.907 270.37C585.907 266.203 582.528 262.825 578.362 262.825C574.194 262.825 570.815 266.203 570.815 270.37C570.815 274.535 574.194 277.913 578.362 277.913C582.528 277.913 585.907 274.535 585.907 270.37Z" fill="#E6F1F9"/>
<path d="M610.355 231.986C610.355 227.819 606.977 224.441 602.81 224.441C598.642 224.441 595.264 227.819 595.264 231.986C595.264 236.151 598.642 239.529 602.81 239.529C606.977 239.529 610.355 236.151 610.355 231.986Z" fill="#E6F1F9"/>
<path d="M627.41 203.081C627.41 198.915 624.032 195.537 619.864 195.537C615.697 195.537 612.319 198.915 612.319 203.081C612.319 207.248 615.697 210.625 619.864 210.625C624.032 210.625 627.41 207.248 627.41 203.081Z" fill="#E6F1F9"/>
<path d="M454.806 312.617C454.806 308.451 451.428 305.074 447.26 305.074C443.093 305.074 439.715 308.451 439.715 312.617C439.715 316.784 443.093 320.161 447.26 320.161C451.428 320.161 454.806 316.784 454.806 312.617Z" fill="#E6F1F9"/>
<path d="M416.182 284.781C416.182 280.615 412.803 277.237 408.636 277.237C404.469 277.237 401.09 280.615 401.09 284.781C401.09 288.947 404.469 292.325 408.636 292.325C412.803 292.325 416.182 288.947 416.182 284.781Z" fill="#E6F1F9"/>
<path d="M454.806 211.12C454.806 206.954 451.428 203.576 447.26 203.576C443.093 203.576 439.715 206.954 439.715 211.12C439.715 215.286 443.093 218.664 447.26 218.664C451.428 218.664 454.806 215.286 454.806 211.12Z" fill="#E6F1F9"/>
<path d="M481.163 361.601C481.163 357.436 477.785 354.058 473.618 354.058C469.45 354.058 466.072 357.436 466.072 361.601C466.072 365.768 469.45 369.146 473.618 369.146C477.785 369.146 481.163 365.768 481.163 361.601Z" fill="#E6F1F9"/>
<path d="M496.213 309.999C496.213 305.832 492.834 302.455 488.667 302.455C484.5 302.455 481.121 305.832 481.121 309.999C481.121 314.165 484.5 317.542 488.667 317.542C492.834 317.542 496.213 314.165 496.213 309.999Z" fill="#E6F1F9"/>
<path d="M551.582 402.955C551.582 398.789 548.204 395.411 544.037 395.411C539.869 395.411 536.49 398.789 536.49 402.955C536.49 407.122 539.869 410.499 544.037 410.499C548.204 410.499 551.582 407.122 551.582 402.955Z" fill="#E6F1F9"/>
<path d="M577.05 375.182C577.05 371.015 573.672 367.638 569.505 367.638C565.337 367.638 561.959 371.015 561.959 375.182C561.959 379.348 565.337 382.726 569.505 382.726C573.672 382.726 577.05 379.348 577.05 375.182Z" fill="#E6F1F9"/>
<path d="M330.127 376.724C330.127 372.558 326.749 369.18 322.581 369.18C318.414 369.18 315.036 372.558 315.036 376.724C315.036 380.891 318.414 384.268 322.581 384.268C326.749 384.268 330.127 380.891 330.127 376.724Z" fill="#E6F1F9"/>
<path d="M299.867 350.76C299.867 346.593 296.488 343.216 292.321 343.216C288.154 343.216 284.775 346.593 284.775 350.76C284.775 354.926 288.154 358.304 292.321 358.304C296.488 358.304 299.867 354.926 299.867 350.76Z" fill="#E6F1F9"/>
<path d="M333.768 268.328C333.768 264.162 330.389 260.785 326.221 260.785C322.054 260.785 318.676 264.162 318.676 268.328C318.676 272.495 322.054 275.872 326.221 275.872C330.389 275.872 333.768 272.495 333.768 268.328Z" fill="#E6F1F9"/>
<path d="M254.828 253.129C254.828 248.962 251.45 245.585 247.282 245.585C243.115 245.585 239.737 248.962 239.737 253.129C239.737 257.295 243.115 260.672 247.282 260.672C251.45 260.672 254.828 257.295 254.828 253.129Z" fill="#E6F1F9"/>
<path d="M349 260.672C349 256.506 345.622 253.129 341.455 253.129C337.287 253.129 333.909 256.506 333.909 260.672C333.909 264.839 337.287 268.216 341.455 268.216C345.622 268.216 349 264.839 349 260.672Z" fill="#E6F1F9"/>
<path d="M377.288 253.729C377.288 249.563 373.91 246.185 369.743 246.185C365.575 246.185 362.197 249.563 362.197 253.729C362.197 257.896 365.575 261.273 369.743 261.273C373.91 261.273 377.288 257.896 377.288 253.729Z" fill="#E6F1F9"/>
<path d="M367.733 188.033C367.733 183.867 364.354 180.489 360.187 180.489C356.02 180.489 352.641 183.867 352.641 188.033C352.641 192.199 356.02 195.577 360.187 195.577C364.354 195.577 367.733 192.199 367.733 188.033Z" fill="#E6F1F9"/>
<path d="M473.618 82.0494C473.618 77.883 470.239 74.5057 466.072 74.5057C461.905 74.5057 458.526 77.883 458.526 82.0494C458.526 86.2157 461.905 89.5931 466.072 89.5931C470.239 89.5931 473.618 86.2157 473.618 82.0494Z" fill="#E6F1F9"/>
<path d="M588.058 128.198C588.058 124.032 584.679 120.654 580.513 120.654C576.345 120.654 572.966 124.032 572.966 128.198C572.966 132.365 576.345 135.742 580.513 135.742C584.679 135.742 588.058 132.365 588.058 128.198Z" fill="#E6F1F9"/>
<path d="M397.342 109.449C397.342 105.283 393.964 101.906 389.797 101.906C385.629 101.906 382.251 105.283 382.251 109.449C382.251 113.616 385.629 116.993 389.797 116.993C393.964 116.993 397.342 113.616 397.342 109.449Z" fill="#E6F1F9"/>
<path d="M372.191 124.538C372.191 120.371 368.812 116.993 364.644 116.993C360.478 116.993 357.099 120.371 357.099 124.538C357.099 128.704 360.478 132.081 364.644 132.081C368.812 132.081 372.191 128.704 372.191 124.538Z" fill="#E6F1F9"/>
<path d="M358.942 374.426L332.349 401.013H181.779L66.1538 516.609L68.8172 519.271L183.339 404.779H333.909L361.605 377.088L358.942 374.426Z" fill="#E6F1F9"/>
<path d="M205.287 485.516H98.0347V489.281H203.727L234.488 520.034L237.15 517.371L205.287 485.516Z" fill="#E6F1F9"/>
<path d="M374.04 468.778L371.377 471.44L418.668 518.72V655H422.434V517.16L374.04 468.778Z" fill="#E6F1F9"/>
<path d="M289.289 468.732L286.626 471.394L367.039 551.787H420.551V548.021H368.599L289.289 468.732Z" fill="#E6F1F9"/>
<path d="M245.248 -0.00238037H241.481V186.271L324.89 269.659L327.553 266.996L245.248 184.711V-0.00238037Z" fill="#E6F1F9"/>
<path d="M260.481 -0.00238037H256.714V178.616L340.124 262.004L342.787 259.341L260.481 177.056V-0.00238037Z" fill="#E6F1F9"/>
<path d="M288.769 1.0887H285.002V171.673L368.411 255.06L371.074 252.398L288.769 170.113V1.0887Z" fill="#E6F1F9"/>
<path d="M464.74 80.7176L394.225 151.217H286.885V154.982H395.785L467.403 83.3804L464.74 80.7176Z" fill="#E6F1F9"/>
<path d="M364.644 121.664H286.885V125.429H364.644V121.664Z" fill="#E6F1F9"/>
<path d="M389.796 107.567H286.885V111.332H389.796V107.567Z" fill="#E6F1F9"/>
<path d="M167.185 234.473L19.0996 382.522V487.399H22.8662V384.082L169.847 237.136L167.185 234.473Z" fill="#E6F1F9"/>
<path d="M243.365 96.928H208.17V259.893L119.607 348.433L122.27 351.096L211.937 261.452V100.693H243.365V96.928Z" fill="#E6F1F9"/>
<path d="M124.06 105.463L121.396 108.126L150.213 136.934V190.599H210.053V186.834H153.979V135.374L124.06 105.463Z" fill="#E6F1F9"/>
<path d="M57.0234 392.03H53.2568V487.399H57.0234V392.03Z" fill="#E6F1F9"/>
<path d="M153.806 316.906L151.143 319.568L210.197 378.607H322.581V374.841H211.757L153.806 316.906Z" fill="#E6F1F9"/>
<path d="M138.918 -0.00239563H135.151V82.8286L178.959 126.626V166.085H182.726V125.066L138.918 81.2693V-0.00239563Z" fill="#E6F1F9"/>
<path d="M170.268 300.448L167.605 303.111L217.15 352.643H292.322V348.877H218.709L170.268 300.448Z" fill="#E6F1F9"/>
<path d="M540.634 468.937L460.428 549.124V655H464.194V550.684L543.298 471.6L540.634 468.937Z" fill="#E6F1F9"/>
<path d="M577.266 468.937L497.059 549.124V655H500.825V550.684L579.93 471.6L577.266 468.937Z" fill="#E6F1F9"/>
<path d="M487.445 401.624L453.985 435.077H202.147L151.143 486.068L153.806 488.73L203.707 438.842H455.544L490.108 404.286L487.445 401.624Z" fill="#E6F1F9"/>
<path d="M381.034 310.735H248.275V350.76H252.042V314.501H379.474L444.467 379.476L447.13 376.813L381.034 310.735Z" fill="#E6F1F9"/>
<path d="M634 155.854L542.153 247.678V402.955H545.92V249.237L633.976 161.204L634 155.854Z" fill="#E6F1F9"/>
<path d="M633.975 114.33L503.15 245.125V338.085H506.917V246.683L634 119.631L633.975 114.33Z" fill="#E6F1F9"/>
<path d="M633.977 91.6632H542.153V142.657L445.377 239.409V312.618H449.144V240.968L545.92 144.215V95.4285H633.977V91.6632Z" fill="#E6F1F9"/>
<path d="M582.396 93.5458H578.629V128.198H582.396V93.5458Z" fill="#E6F1F9"/>
<path d="M475.501 213.838H471.734V361.114H475.501V213.838Z" fill="#E6F1F9"/>
<path d="M506.917 -0.00241089H503.15V127.419L406.753 223.792V284.781H410.519V225.351L506.917 128.977V-0.00241089Z" fill="#E6F1F9"/>
<path d="M571.412 373.851L568.749 376.513L603.524 411.279V496.207L534.607 565.107V655H538.374V566.666L607.29 497.766V409.72L571.412 373.851Z" fill="#E6F1F9"/>
<path d="M633.975 509.953L581.577 562.338L584.241 565.001L633.975 515.278V509.953Z" fill="#E6F1F9"/>
<path d="M580.244 268.817H576.478V312.086L615.942 351.54V452.574L604.076 464.437L606.738 467.1L619.709 454.132V349.981L580.244 310.527V268.817Z" fill="#E6F1F9"/>
<path d="M604.693 231.985H600.926V335.749H604.693V231.985Z" fill="#E6F1F9"/>
<path d="M377.577 435.628L374.914 438.29L433.239 496.6H483.428V492.834H434.798L377.577 435.628Z" fill="#E6F1F9"/>
<path d="M454.373 523.498L438.471 539.397V655H442.237V540.955L457.036 526.161L454.373 523.498Z" fill="#E6F1F9"/>
<path d="M503.702 92.2141L409.742 186.151H360.187V189.917H411.302L506.365 94.8768L503.702 92.2141Z" fill="#E6F1F9"/>
<path d="M420.551 573.213H222.93V576.978H420.551V573.213Z" fill="#E6F1F9"/>
<path d="M248.615 252.096L245.951 254.758L305.157 313.949L307.82 311.286L248.615 252.096Z" fill="#E6F1F9"/>
<path d="M404.212 379.099L347.669 435.628L350.332 438.29L406.876 381.761L404.212 379.099Z" fill="#E6F1F9"/>
<path d="M348.758 328.657H264.615V350.76H268.382V332.424H347.198L363.712 348.932L366.374 346.269L348.758 328.657Z" fill="#E6F1F9"/>
<path d="M225.302 463.466L222.639 466.129L281.575 525.05H341.076V521.285H283.134L225.302 463.466Z" fill="#E6F1F9"/>
<path d="M307.82 435.628L305.157 438.29L385.738 518.852L388.401 516.189L307.82 435.628Z" fill="#E6F1F9"/>
<path d="M605.407 435.077H498.942V438.842H605.407V435.077Z" fill="#E6F1F9"/>
<path d="M84.0351 105.628L81.3726 108.291L150.764 177.666L153.427 175.003L84.0351 105.628Z" fill="#E6F1F9"/>
<path d="M152.475 382.604H88.3662V451.176H92.1325V386.369H152.475V382.604Z" fill="#E6F1F9"/>
<path d="M332.54 70.841H307.172V96.2036H332.54V70.841Z" fill="#E6F1F9"/>
<path d="M198.665 69.4888H173.296V94.8506H198.665V69.4888Z" fill="#E6F1F9"/>
<path d="M130.084 189.387H104.716V214.749H130.084V189.387Z" fill="#E6F1F9"/>
<path d="M238.911 323.93H213.542V334.637H238.911V323.93Z" fill="#E6F1F9"/>
<path d="M238.911 307.264H213.542V317.97H238.911V307.264Z" fill="#E6F1F9"/>
<path d="M238.911 290.598H213.542V301.305H238.911V290.598Z" fill="#E6F1F9"/>
<path d="M372.871 70.841H347.502V96.2036H372.871V70.841Z" fill="#E6F1F9"/>
<path d="M340.703 161.985H315.334V187.347H340.703V161.985Z" fill="#E6F1F9"/>
<path d="M389.163 279.415H363.794V304.777H389.163V279.415Z" fill="#E6F1F9"/>
<path d="M452.399 398.643H427.031V424.005H452.399V398.643Z" fill="#E6F1F9"/>
<path d="M468.389 457.429H443.02V482.79H468.389V457.429Z" fill="#E6F1F9"/>
<path d="M441.55 236.789H416.182V262.151H441.55V236.789Z" fill="#E6F1F9"/>
<path d="M210.351 506.021H184.983V531.384H210.351V506.021Z" fill="#E6F1F9"/>
<path d="M168.516 342.343H143.148V367.705H168.516V342.343Z" fill="#E6F1F9"/>
<path d="M539.072 69.195H523.633V84.6295H539.072V69.195Z" fill="#E6F1F9"/>
<path d="M564.091 69.195H548.651V84.6295H564.091V69.195Z" fill="#E6F1F9"/>
<path d="M589.108 69.195H573.67V84.6295H589.108V69.195Z" fill="#E6F1F9"/>
<path d="M495.09 204.323L484.172 215.237L495.09 226.152L506.006 215.237L495.09 204.323Z" fill="#E6F1F9"/>
<path d="M511.032 188.384L500.115 199.299L511.032 210.213L521.948 199.299L511.032 188.384Z" fill="#E6F1F9"/>
<path d="M416.1 -0.00241089H412.333V81.6393H319.856V85.4054H416.1V-0.00241089Z" fill="#E6F1F9"/>
<path d="M233.427 80.1471C233.427 74.2601 228.654 69.4888 222.766 69.4888C216.878 69.4888 212.105 74.2601 212.105 80.1471C212.105 86.0332 216.878 90.8054 222.766 90.8054C228.654 90.8054 233.427 86.0332 233.427 80.1471Z" fill="#E6F1F9"/>
<path d="M160.821 -0.00243378H157.055V82.0289H222.766V78.2636H160.821V-0.00243378Z" fill="#E6F1F9"/>
<path d="M633.976 75.0295H531.352V78.7948H633.976V75.0295Z" fill="#E6F1F9"/>
<path d="M487.985 -0.00234985H484.219V85.1493L396.562 172.784H328.019V176.549H398.122L487.985 86.7078V-0.00234985Z" fill="#E6F1F9"/>
<path d="M228.11 99.2495H224.343V329.284H228.11V99.2495Z" fill="#E6F1F9"/>
<path d="M227.558 201.75L224.896 204.413L314.485 293.979H376.479V290.214H316.044L227.558 201.75Z" fill="#E6F1F9"/>
<path d="M392.049 217.109C392.049 208.96 385.441 202.353 377.288 202.353C369.137 202.353 362.529 208.96 362.529 217.109C362.529 225.259 369.137 231.865 377.288 231.865C385.441 231.865 392.049 225.259 392.049 217.109Z" fill="#E6F1F9"/>
<path d="M532.548 370.601C532.548 362.451 525.94 355.845 517.788 355.845C509.637 355.845 503.028 362.451 503.028 370.601C503.028 378.751 509.637 385.357 517.788 385.357C525.94 385.357 532.548 378.751 532.548 370.601Z" fill="#E6F1F9"/>
<path d="M516.898 465.838C516.898 457.688 510.29 451.082 502.139 451.082C493.987 451.082 487.378 457.688 487.378 465.838C487.378 473.988 493.987 480.594 502.139 480.594C510.29 480.594 516.898 473.988 516.898 465.838Z" fill="#E6F1F9"/>
<path d="M518.176 -0.00238037H514.41V96.9829L525.178 107.748V131.302L446.671 209.789L449.333 212.452L528.945 132.861V106.189L518.176 95.4236V-0.00238037Z" fill="#E6F1F9"/>
<path d="M430.75 249.47H426.983V361.601H430.75V249.47Z" fill="#E6F1F9"/>
<path d="M619.709 93.5459H615.942V112.93L486.783 242.055V309.998H490.55V243.615L619.709 114.488V93.5459Z" fill="#E6F1F9"/>
<path d="M98.0341 358.304C98.0341 349.839 91.1705 342.977 82.7038 342.977C74.2371 342.977 67.3735 349.839 67.3735 358.304C67.3735 366.769 74.2371 373.631 82.7038 373.631C91.1705 373.631 98.0341 366.769 98.0341 358.304Z" fill="#E6F1F9"/>
<path d="M208.282 230.095L81.3726 356.973L84.0351 359.635L210.945 232.757L208.282 230.095Z" fill="#E6F1F9"/>
<path d="M210.053 205.434H165.611L6.7124 364.293L9.37555 366.956L167.17 209.2H210.053V205.434Z" fill="#E6F1F9"/>
<path d="M199.55 496.855H120.582L100.161 517.272L102.825 519.934L122.142 500.621H195.784V518.703H199.55V496.855Z" fill="#E6F1F9"/>
<path d="M176.842 353.141H155.832V356.907H175.282L222.626 404.239L225.29 401.577L176.842 353.141Z" fill="#E6F1F9"/>
<path d="M299.867 416.384H193.906L124.205 486.068L126.868 488.73L195.465 420.15H299.867V416.384Z" fill="#E6F1F9"/>
<path d="M308.124 410.012H291.609V426.523H308.124V410.012Z" fill="#E6F1F9"/>
<path d="M587.041 498.738L575.363 487.063L563.686 498.738L575.363 510.413L587.041 498.738Z" fill="#E6F1F9"/>
<path d="M489.455 571.213H472.94V587.724H489.455V571.213Z" fill="#E6F1F9"/>
<path d="M287.958 487.063L276.28 498.738L287.958 510.413L299.636 498.738L287.958 487.063Z" fill="#E6F1F9"/>
<path d="M570.183 515.591L558.505 503.916L546.828 515.591L558.505 527.266L570.183 515.591Z" fill="#E6F1F9"/>
<path d="M532.792 309.287H516.277V325.798H532.792V309.287Z" fill="#E6F1F9"/>
<path d="M569.371 294.199H552.856V310.71H569.371V294.199Z" fill="#E6F1F9"/>
<path d="M532.792 284.07H516.277V300.581H532.792V284.07Z" fill="#E6F1F9"/>
<path d="M283.014 410.012H266.499V426.523H283.014V410.012Z" fill="#E6F1F9"/>
<path d="M255.426 410.012H238.911V426.523H255.426V410.012Z" fill="#E6F1F9"/>
<path d="M633.976 135.512L522.652 246.809V317.543H526.418V248.368L634 140.813L633.976 135.512Z" fill="#E6F1F9"/>
<path d="M519.671 370.601H515.904V424.39H571.596L595.448 400.544L592.785 397.881L570.036 420.624H519.671V370.601Z" fill="#E6F1F9"/>
<path d="M563.051 302.454H559.285V332.111L616.494 389.305L619.157 386.642L563.051 330.552V302.454Z" fill="#E6F1F9"/>
<path d="M621.748 203.082H617.981V291.456L601.478 307.956L604.141 310.618L621.748 293.015V203.082Z" fill="#E6F1F9"/>
<path d="M439.715 409.44H392.049L366.172 435.311L368.835 437.974L393.609 413.207H439.715V409.44Z" fill="#E6F1F9"/>
<path d="M605.407 446.443H518.876L500.807 464.506L503.47 467.169L520.435 450.208H605.407V446.443Z" fill="#E6F1F9"/>
<path d="M401.46 435.577L398.798 438.24L432.558 471.992H455.705V468.227H434.118L401.46 435.577Z" fill="#E6F1F9"/>
<path d="M574.031 497.407L516.72 554.704V655H520.487V556.264L576.695 500.069L574.031 497.407Z" fill="#E6F1F9"/>
<path d="M561.038 93.5459H557.272V150.408L493.757 213.906L496.421 216.568L561.038 151.966V93.5459Z" fill="#E6F1F9"/>
<path d="M562.819 448.326H559.052V469.405L479.313 549.124V579.468H483.08V550.684L562.819 470.965V448.326Z" fill="#E6F1F9"/>
<path d="M263.187 436.959H259.419V472.87L286.626 500.069L289.289 497.407L263.187 471.31V436.959Z" fill="#E6F1F9"/>
<path d="M323.514 479.661L320.851 482.323L378.744 540.201H420.551V536.436H380.304L323.514 479.661Z" fill="#E6F1F9"/>
</svg>
