<svg width="439" height="293" viewBox="0 0 439 293" fill="none" xmlns="http://www.w3.org/2000/svg">
<path d="M263.509 268.129C263.509 265.248 261.173 262.912 258.291 262.912C255.409 262.912 253.072 265.248 253.072 268.129C253.072 271.011 255.409 273.346 258.291 273.346C261.173 273.346 263.509 271.011 263.509 268.129Z" fill="#007AD1"/>
<path d="M380.568 268.24C380.568 265.358 378.232 263.022 375.349 263.022C372.467 263.022 370.131 265.358 370.131 268.24C370.131 271.12 372.467 273.457 375.349 273.457C378.232 273.457 380.568 271.12 380.568 268.24Z" fill="#007AD1"/>
<path d="M340.083 285.147C340.083 282.266 337.746 279.93 334.864 279.93C331.982 279.93 329.646 282.266 329.646 285.147C329.646 288.029 331.982 290.365 334.864 290.365C337.746 290.365 340.083 288.029 340.083 285.147Z" fill="#007AD1"/>
<path d="M350.812 245.202C350.812 242.321 348.476 239.985 345.594 239.985C342.711 239.985 340.375 242.321 340.375 245.202C340.375 248.084 342.711 250.42 345.594 250.42C348.476 250.42 350.812 248.084 350.812 245.202Z" fill="#007AD1"/>
<path d="M405.903 268.24C405.903 265.358 403.566 263.022 400.683 263.022C397.801 263.022 395.465 265.358 395.465 268.24C395.465 271.12 397.801 273.457 400.683 273.457C403.566 273.457 405.903 271.12 405.903 268.24Z" fill="#007AD1"/>
<path d="M204.895 268.097C204.895 265.215 202.559 262.88 199.677 262.88C196.794 262.88 194.458 265.215 194.458 268.097C194.458 270.978 196.794 273.314 199.677 273.314C202.559 273.314 204.895 270.978 204.895 268.097Z" fill="#007AD1"/>
<path d="M228.566 275.656C228.566 272.774 226.229 270.438 223.347 270.438C220.465 270.438 218.128 272.774 218.128 275.656C218.128 278.537 220.465 280.873 223.347 280.873C226.229 280.873 228.566 278.537 228.566 275.656Z" fill="#007AD1"/>
<path d="M160.983 264.455C160.983 261.574 158.646 259.238 155.763 259.238C152.882 259.238 150.545 261.574 150.545 264.455C150.545 267.337 152.882 269.672 155.763 269.672C158.646 269.672 160.983 267.337 160.983 264.455Z" fill="#007AD1"/>
<path d="M111.195 208.912C111.195 206.03 108.858 203.695 105.976 203.695C103.094 203.695 100.757 206.03 100.757 208.912C100.757 211.793 103.094 214.129 105.976 214.129C108.858 214.129 111.195 211.793 111.195 208.912Z" fill="#007AD1"/>
<path d="M89.3834 184.899C89.3834 182.017 87.0471 179.681 84.1649 179.681C81.2826 179.681 78.9463 182.017 78.9463 184.899C78.9463 187.78 81.2826 190.116 84.1649 190.116C87.0471 190.116 89.3834 187.78 89.3834 184.899Z" fill="#007AD1"/>
<path d="M11.3053 195.867C11.3053 192.986 8.96888 190.649 6.08672 190.649C3.20462 190.649 0.868164 192.986 0.868164 195.867C0.868164 198.749 3.20462 201.084 6.08672 201.084C8.96888 201.084 11.3053 198.749 11.3053 195.867Z" fill="#007AD1"/>
<path d="M43.8777 214.129C43.8777 211.248 41.5413 208.912 38.6592 208.912C35.7769 208.912 33.4404 211.248 33.4404 214.129C33.4404 217.011 35.7769 219.347 38.6592 219.347C41.5413 219.347 43.8777 217.011 43.8777 214.129Z" fill="#007AD1"/>
<path d="M122.289 106.083C122.289 103.202 119.952 100.866 117.07 100.866C114.188 100.866 111.852 103.202 111.852 106.083C111.852 108.965 114.188 111.301 117.07 111.301C119.952 111.301 122.289 108.965 122.289 106.083Z" fill="#007AD1"/>
<path d="M130.814 57.8646C130.814 54.9831 128.477 52.6473 125.595 52.6473C122.713 52.6473 120.376 54.9831 120.376 57.8646C120.376 60.7461 122.713 63.0818 125.595 63.0818C128.477 63.0818 130.814 60.7461 130.814 57.8646Z" fill="#007AD1"/>
<path d="M62.9401 16.9735C62.9401 14.092 60.6037 11.7562 57.7215 11.7562C54.8393 11.7562 52.5029 14.092 52.5029 16.9735C52.5029 19.855 54.8393 22.1913 57.7215 22.1913C60.6037 22.1913 62.9401 19.855 62.9401 16.9735Z" fill="#007AD1"/>
<path d="M90.6217 16.8591C90.6217 13.9776 88.2853 11.6412 85.4031 11.6412C82.5209 11.6412 80.1846 13.9776 80.1846 16.8591C80.1846 19.7405 82.5209 22.0763 85.4031 22.0763C88.2853 22.0763 90.6217 19.7405 90.6217 16.8591Z" fill="#007AD1"/>
<path d="M254.908 202.875C254.908 199.993 252.571 197.658 249.689 197.658C246.807 197.658 244.471 199.993 244.471 202.875C244.471 205.756 246.807 208.092 249.689 208.092C252.571 208.092 254.908 205.756 254.908 202.875Z" fill="#007AD1"/>
<path d="M258.208 183.318C258.208 180.437 255.871 178.101 252.989 178.101C250.107 178.101 247.771 180.437 247.771 183.318C247.771 186.2 250.107 188.536 252.989 188.536C255.871 188.536 258.208 186.2 258.208 183.318Z" fill="#007AD1"/>
<path d="M314.058 204.526C314.058 201.645 311.721 199.308 308.839 199.308C305.956 199.308 303.62 201.645 303.62 204.526C303.62 207.407 305.956 209.744 308.839 209.744C311.721 209.744 314.058 207.407 314.058 204.526Z" fill="#007AD1"/>
<path d="M286.218 206.107C286.218 203.225 283.881 200.89 280.999 200.89C278.117 200.89 275.78 203.225 275.78 206.107C275.78 208.988 278.117 211.324 280.999 211.324C283.881 211.324 286.218 208.988 286.218 206.107Z" fill="#007AD1"/>
<path d="M343.782 221.685C343.782 218.804 341.445 216.468 338.563 216.468C335.681 216.468 333.345 218.804 333.345 221.685C333.345 224.567 335.681 226.902 338.563 226.902C341.445 226.902 343.782 224.567 343.782 221.685Z" fill="#007AD1"/>
<path d="M355.025 176.82C355.025 173.939 352.689 171.603 349.806 171.603C346.924 171.603 344.588 173.939 344.588 176.82C344.588 179.702 346.924 182.038 349.806 182.038C352.689 182.038 355.025 179.702 355.025 176.82Z" fill="#007AD1"/>
<path d="M405.739 129.988C405.739 127.107 403.403 124.771 400.521 124.771C397.639 124.771 395.302 127.107 395.302 129.988C395.302 132.869 397.639 135.206 400.521 135.206C403.403 135.206 405.739 132.869 405.739 129.988Z" fill="#007AD1"/>
<path d="M422.647 103.442C422.647 100.56 420.311 98.2241 417.429 98.2241C414.546 98.2241 412.21 100.56 412.21 103.442C412.21 106.323 414.546 108.659 417.429 108.659C420.311 108.659 422.647 106.323 422.647 103.442Z" fill="#007AD1"/>
<path d="M434.442 83.4516C434.442 80.5701 432.106 78.2343 429.223 78.2343C426.341 78.2343 424.005 80.5701 424.005 83.4516C424.005 86.3331 426.341 88.6688 429.223 88.6688C432.106 88.6688 434.442 86.3331 434.442 83.4516Z" fill="#007AD1"/>
<path d="M315.069 159.207C315.069 156.326 312.733 153.99 309.85 153.99C306.968 153.99 304.632 156.326 304.632 159.207C304.632 162.089 306.968 164.424 309.85 164.424C312.733 164.424 315.069 162.089 315.069 159.207Z" fill="#007AD1"/>
<path d="M288.357 139.955C288.357 137.074 286.02 134.738 283.138 134.738C280.255 134.738 277.919 137.074 277.919 139.955C277.919 142.837 280.255 145.173 283.138 145.173C286.02 145.173 288.357 142.837 288.357 139.955Z" fill="#007AD1"/>
<path d="M315.069 89.0113C315.069 86.1298 312.733 83.794 309.85 83.794C306.968 83.794 304.632 86.1298 304.632 89.0113C304.632 91.8927 306.968 94.2285 309.85 94.2285C312.733 94.2285 315.069 91.8927 315.069 89.0113Z" fill="#007AD1"/>
<path d="M333.297 193.085C333.297 190.204 330.961 187.867 328.079 187.867C325.197 187.867 322.86 190.204 322.86 193.085C322.86 195.966 325.197 198.302 328.079 198.302C330.961 198.302 333.297 195.966 333.297 193.085Z" fill="#007AD1"/>
<path d="M343.706 157.396C343.706 154.515 341.37 152.179 338.488 152.179C335.605 152.179 333.269 154.515 333.269 157.396C333.269 160.278 335.605 162.613 338.488 162.613C341.37 162.613 343.706 160.278 343.706 157.396Z" fill="#007AD1"/>
<path d="M382 221.685C382 218.804 379.664 216.468 376.782 216.468C373.899 216.468 371.562 218.804 371.562 221.685C371.562 224.567 373.899 226.902 376.782 226.902C379.664 226.902 382 224.567 382 221.685Z" fill="#007AD1"/>
<path d="M399.614 202.477C399.614 199.595 397.278 197.26 394.395 197.26C391.513 197.26 389.177 199.595 389.177 202.477C389.177 205.358 391.513 207.694 394.395 207.694C397.278 207.694 399.614 205.358 399.614 202.477Z" fill="#007AD1"/>
<path d="M228.84 203.544C228.84 200.662 226.504 198.326 223.622 198.326C220.74 198.326 218.403 200.662 218.403 203.544C218.403 206.425 220.74 208.761 223.622 208.761C226.504 208.761 228.84 206.425 228.84 203.544Z" fill="#007AD1"/>
<path d="M207.913 185.587C207.913 182.705 205.576 180.369 202.694 180.369C199.812 180.369 197.476 182.705 197.476 185.587C197.476 188.468 199.812 190.804 202.694 190.804C205.576 190.804 207.913 188.468 207.913 185.587Z" fill="#007AD1"/>
<path d="M231.359 128.577C231.359 125.695 229.022 123.359 226.139 123.359C223.257 123.359 220.921 125.695 220.921 128.577C220.921 131.458 223.257 133.794 226.139 133.794C229.022 133.794 231.359 131.458 231.359 128.577Z" fill="#007AD1"/>
<path d="M176.763 118.064C176.763 115.183 174.427 112.847 171.545 112.847C168.663 112.847 166.326 115.183 166.326 118.064C166.326 120.946 168.663 123.282 171.545 123.282C174.427 123.282 176.763 120.946 176.763 118.064Z" fill="#007AD1"/>
<path d="M241.893 123.282C241.893 120.4 239.557 118.064 236.675 118.064C233.792 118.064 231.456 120.4 231.456 123.282C231.456 126.163 233.792 128.499 236.675 128.499C239.557 128.499 241.893 126.163 241.893 123.282Z" fill="#007AD1"/>
<path d="M261.458 118.48C261.458 115.599 259.121 113.262 256.239 113.262C253.357 113.262 251.021 115.599 251.021 118.48C251.021 121.361 253.357 123.697 256.239 123.697C259.121 123.697 261.458 121.361 261.458 118.48Z" fill="#007AD1"/>
<path d="M254.849 73.0442C254.849 70.1627 252.512 67.827 249.63 67.827C246.748 67.827 244.411 70.1627 244.411 73.0442C244.411 75.9257 246.748 78.2615 249.63 78.2615C252.512 78.2615 254.849 75.9257 254.849 73.0442Z" fill="#007AD1"/>
<path d="M328.079 -0.254435C328.079 -3.13593 325.742 -5.47167 322.86 -5.47167C319.978 -5.47167 317.642 -3.13593 317.642 -0.254435C317.642 2.62706 319.978 4.96283 322.86 4.96283C325.742 4.96283 328.079 2.62706 328.079 -0.254435Z" fill="#007AD1"/>
<path d="M407.227 31.6623C407.227 28.7808 404.89 26.445 402.008 26.445C399.126 26.445 396.789 28.7808 396.789 31.6623C396.789 34.5437 399.126 36.8795 402.008 36.8795C404.89 36.8795 407.227 34.5437 407.227 31.6623Z" fill="#007AD1"/>
<path d="M275.327 18.6955C275.327 15.814 272.99 13.4782 270.108 13.4782C267.226 13.4782 264.89 15.814 264.89 18.6955C264.89 21.577 267.226 23.9127 270.108 23.9127C272.99 23.9127 275.327 21.577 275.327 18.6955Z" fill="#007AD1"/>
<path d="M257.932 29.1307C257.932 26.2492 255.595 23.9128 252.713 23.9128C249.831 23.9128 247.494 26.2492 247.494 29.1307C247.494 32.0122 249.831 34.3479 252.713 34.3479C255.595 34.3479 257.932 32.0122 257.932 29.1307Z" fill="#007AD1"/>
<path d="M248.769 201.954L230.377 220.342H126.242L46.2754 300.288L48.1174 302.13L127.321 222.946H231.456L250.611 203.795L248.769 201.954Z" fill="#007AD1"/>
<path d="M142.501 278.784H68.3252V281.388H141.422L162.696 302.657L164.538 300.816L142.501 278.784Z" fill="#007AD1"/>
<path d="M259.211 267.209L257.369 269.05L290.076 301.748V396H292.68V300.67L259.211 267.209Z" fill="#007AD1"/>
<path d="M200.597 267.176L198.756 269.017L254.37 324.618H291.379V322.013H255.448L200.597 267.176Z" fill="#007AD1"/>
<path d="M170.138 -57.0017H167.533V71.8253L225.219 129.497L227.061 127.656L170.138 70.7469V-57.0017Z" fill="#007AD1"/>
<path d="M180.674 -57.0016H178.068V66.5311L235.755 124.203L237.597 122.361L180.674 65.4527V-57.0016Z" fill="#007AD1"/>
<path d="M200.237 -56.2471H197.632V61.7294L255.318 119.4L257.159 117.559L200.237 60.651V-56.2471Z" fill="#007AD1"/>
<path d="M321.939 -1.17541L273.171 47.5818H198.935V50.1859H274.25L323.781 0.666153L321.939 -1.17541Z" fill="#007AD1"/>
<path d="M252.713 27.143H198.935V29.7471H252.713V27.143Z" fill="#007AD1"/>
<path d="M270.108 17.3935H198.935V19.9976H270.108V17.3935Z" fill="#007AD1"/>
<path d="M116.15 105.162L13.7334 207.553V280.086H16.3384V208.632L117.991 107.004L116.15 105.162Z" fill="#007AD1"/>
<path d="M168.835 10.0357H144.494V122.743L83.2441 183.978L85.0856 185.819L147.1 123.821V12.6398H168.835V10.0357Z" fill="#007AD1"/>
<path d="M86.3235 15.9385L84.4814 17.7801L104.411 37.7037V74.8189H145.797V72.2148H107.016V36.6253L86.3235 15.9385Z" fill="#007AD1"/>
<path d="M39.9614 214.129H37.3564V280.086H39.9614V214.129Z" fill="#007AD1"/>
<path d="M106.897 162.173L105.055 164.014L145.897 204.846H223.622V202.241H146.975L106.897 162.173Z" fill="#007AD1"/>
<path d="M96.5999 -57.0017H93.9951V0.284534L124.293 30.5747V57.8646H126.898V29.4963L96.5999 -0.793892V-57.0017Z" fill="#007AD1"/>
<path d="M118.281 150.791L116.439 152.632L150.705 186.889H202.694V184.284H151.783L118.281 150.791Z" fill="#007AD1"/>
<path d="M374.428 267.318L318.957 322.776V396H321.562V323.855L376.27 269.16L374.428 267.318Z" fill="#007AD1"/>
<path d="M399.763 267.318L344.291 322.776V396H346.896V323.855L401.605 269.16L399.763 267.318Z" fill="#007AD1"/>
<path d="M337.642 220.765L314.501 243.9H140.329L105.055 279.166L106.897 281.007L141.408 246.504H315.58L339.484 222.606L337.642 220.765Z" fill="#007AD1"/>
<path d="M264.048 157.905H172.231V185.587H174.837V160.51H262.969L307.918 205.447L309.76 203.605L264.048 157.905Z" fill="#007AD1"/>
<path d="M439 50.7894L375.479 114.295V221.685H378.084V115.373L438.983 54.4889L439 50.7894Z" fill="#007AD1"/>
<path d="M438.983 22.0712L348.504 112.529V176.82H351.109V113.607L439 25.7373L438.983 22.0712Z" fill="#007AD1"/>
<path d="M438.984 6.39453H375.478V41.662L308.548 108.576V159.208H311.153V109.654L378.083 42.7398V8.99863H438.984V6.39453Z" fill="#007AD1"/>
<path d="M403.31 7.6966H400.705V31.6622H403.31V7.6966Z" fill="#007AD1"/>
<path d="M329.381 90.8913H326.776V192.747H329.381V90.8913Z" fill="#007AD1"/>
<path d="M351.109 -57.0017H348.504V31.1232L281.835 97.7752V139.955H284.44V98.8536L351.109 32.2011V-57.0017Z" fill="#007AD1"/>
<path d="M395.714 201.556L393.872 203.397L417.923 227.442V286.178L370.26 333.829V396H372.865V334.908L420.527 287.257V226.363L395.714 201.556Z" fill="#007AD1"/>
<path d="M401.823 128.915H399.218V158.84L426.511 186.126V256.001L418.304 264.206L420.146 266.048L429.116 257.079V185.048L401.823 157.761V128.915Z" fill="#007AD1"/>
<path d="M418.731 103.441H416.126V175.205H418.731V103.441Z" fill="#007AD1"/>
<path d="M261.657 244.282L259.815 246.123L300.153 286.45H334.864V283.845H301.232L261.657 244.282Z" fill="#007AD1"/>
<path d="M348.886 6.77553L283.903 71.7427H249.63V74.3468H284.981L350.728 8.61707L348.886 6.77553Z" fill="#007AD1"/>
<path d="M172.466 117.35L170.624 119.192L211.571 160.128L213.413 158.287L172.466 117.35Z" fill="#007AD1"/>
<path d="M280.078 205.186L240.973 244.282L242.814 246.123L281.92 207.027L280.078 205.186Z" fill="#007AD1"/>
<path d="M241.726 170.3H183.532V185.587H186.138V172.905H240.647L252.068 184.322L253.909 182.481L241.726 170.3Z" fill="#007AD1"/>
<path d="M156.343 263.535L154.501 265.376L195.261 306.126H236.412V303.522H196.34L156.343 263.535Z" fill="#007AD1"/>
<path d="M213.413 244.282L211.571 246.123L267.302 301.84L269.144 299.998L213.413 244.282Z" fill="#007AD1"/>
<path d="M419.225 243.9H345.594V246.504H419.225V243.9Z" fill="#007AD1"/>
<path d="M58.6422 16.0529L56.8008 17.8945L104.792 65.8744L106.634 64.0329L58.6422 16.0529Z" fill="#007AD1"/>
<path d="M105.976 207.61H61.6377V255.035H64.2424V210.214H105.976V207.61Z" fill="#007AD1"/>
<path d="M230.51 -8.00618H212.965V9.53467H230.51V-8.00618Z" fill="#007AD1"/>
<path d="M137.921 -8.9413H120.376V8.599H137.921V-8.9413Z" fill="#007AD1"/>
<path d="M90.49 73.9806H72.9453V91.5209H90.49V73.9806Z" fill="#007AD1"/>
<path d="M165.755 167.031H148.21V174.436H165.755V167.031Z" fill="#007AD1"/>
<path d="M165.755 155.505H148.21V162.909H165.755V155.505Z" fill="#007AD1"/>
<path d="M165.755 143.979H148.21V151.383H165.755V143.979Z" fill="#007AD1"/>
<path d="M258.403 -8.00618H240.857V9.53467H258.403V-8.00618Z" fill="#007AD1"/>
<path d="M236.155 55.0295H218.61V72.5698H236.155V55.0295Z" fill="#007AD1"/>
<path d="M269.67 136.245H252.125V153.785H269.67V136.245Z" fill="#007AD1"/>
<path d="M313.404 218.703H295.859V236.243H313.404V218.703Z" fill="#007AD1"/>
<path d="M324.463 259.359H306.918V276.899H324.463V259.359Z" fill="#007AD1"/>
<path d="M305.901 106.764H288.356V124.304H305.901V106.764Z" fill="#007AD1"/>
<path d="M146.003 292.966H128.458V310.507H146.003V292.966Z" fill="#007AD1"/>
<path d="M117.07 179.765H99.5254V197.306H117.07V179.765Z" fill="#007AD1"/>
<path d="M373.348 -9.14458H362.67V1.52997H373.348V-9.14458Z" fill="#007AD1"/>
<path d="M390.65 -9.14458H379.973V1.52997H390.65V-9.14458Z" fill="#007AD1"/>
<path d="M407.953 -9.14458H397.275V1.52997H407.953V-9.14458Z" fill="#007AD1"/>
<path d="M342.929 84.3104L335.379 91.8588L342.929 99.4073L350.479 91.8588L342.929 84.3104Z" fill="#007AD1"/>
<path d="M353.955 73.2871L346.404 80.8356L353.955 88.384L361.505 80.8356L353.955 73.2871Z" fill="#007AD1"/>
<path d="M288.299 -57.0017H285.694V-0.538001H221.737V2.06665H288.299V-57.0017Z" fill="#007AD1"/>
<path d="M161.962 -1.57003C161.962 -5.64148 158.661 -8.94132 154.589 -8.94132C150.517 -8.94132 147.216 -5.64148 147.216 -1.57003C147.216 2.50086 150.517 5.80127 154.589 5.80127C158.661 5.80127 161.962 2.50086 161.962 -1.57003Z" fill="#007AD1"/>
<path d="M338.015 -57.0016H335.41V1.88947L274.787 62.4976H227.382V65.1017H275.865L338.015 2.96734V-57.0016Z" fill="#007AD1"/>
<path d="M158.285 11.6413H155.681V170.734H158.285V11.6413Z" fill="#007AD1"/>
<path d="M157.903 82.531L156.062 84.3726L218.022 146.317H260.897V143.713H219.1L157.903 82.531Z" fill="#007AD1"/>
<path d="M271.666 93.1535C271.666 87.5173 267.096 82.9477 261.458 82.9477C255.82 82.9477 251.25 87.5173 251.25 93.1535C251.25 98.7896 255.82 103.359 261.458 103.359C267.096 103.359 271.666 98.7896 271.666 93.1535Z" fill="#007AD1"/>
<path d="M368.835 199.308C368.835 193.672 364.265 189.103 358.627 189.103C352.99 189.103 348.419 193.672 348.419 199.308C348.419 204.945 352.99 209.514 358.627 209.514C364.265 209.514 368.835 204.945 368.835 199.308Z" fill="#007AD1"/>
<path d="M358.012 265.175C358.012 259.538 353.442 254.969 347.804 254.969C342.166 254.969 337.596 259.538 337.596 265.175C337.596 270.811 342.166 275.38 347.804 275.38C353.442 275.38 358.012 270.811 358.012 265.175Z" fill="#007AD1"/>
<path d="M358.896 -57.0016H356.291V10.0737L363.738 17.5186V33.8089L309.442 88.0908L311.284 89.9324L366.343 34.8874V16.4408L358.896 8.99529V-57.0016Z" fill="#007AD1"/>
<path d="M298.431 115.534H295.826V193.085H298.431V115.534Z" fill="#007AD1"/>
<path d="M429.116 7.69662H426.511V21.1026L337.185 110.406V157.396H339.79V111.485L429.116 22.1805V7.69662Z" fill="#007AD1"/>
<path d="M68.3241 190.804C68.3241 184.95 63.5772 180.204 57.7216 180.204C51.866 180.204 47.1191 184.95 47.1191 190.804C47.1191 196.659 51.866 201.404 57.7216 201.404C63.5772 201.404 68.3241 196.659 68.3241 190.804Z" fill="#007AD1"/>
<path d="M144.572 102.134L56.8008 189.883L58.6422 191.725L146.414 103.976L144.572 102.134Z" fill="#007AD1"/>
<path d="M145.797 85.0791H115.061L5.16602 194.946L7.00786 196.788L116.139 87.6832H145.797V85.0791Z" fill="#007AD1"/>
<path d="M138.534 286.627H83.9193L69.7959 300.747L71.6379 302.588L84.998 289.231H135.929V301.737H138.534V286.627Z" fill="#007AD1"/>
<path d="M122.828 187.233H108.298V189.838H121.75L154.493 222.573L156.335 220.732L122.828 187.233Z" fill="#007AD1"/>
<path d="M207.913 230.973H134.629L86.4238 279.166L88.2658 281.007L135.708 233.577H207.913V230.973Z" fill="#007AD1"/>
<path d="M213.624 226.565H202.202V237.984H213.624V226.565Z" fill="#007AD1"/>
<path d="M406.523 287.929L398.447 279.854L390.37 287.929L398.447 296.003L406.523 287.929Z" fill="#007AD1"/>
<path d="M199.676 279.854L191.6 287.929L199.676 296.003L207.752 287.929L199.676 279.854Z" fill="#007AD1"/>
<path d="M394.865 299.584L386.788 291.51L378.712 299.584L386.788 307.659L394.865 299.584Z" fill="#007AD1"/>
<path d="M369.004 156.904H357.582V168.323H369.004V156.904Z" fill="#007AD1"/>
<path d="M394.303 146.469H382.881V157.888H394.303V146.469Z" fill="#007AD1"/>
<path d="M369.004 139.463H357.582V150.882H369.004V139.463Z" fill="#007AD1"/>
<path d="M196.257 226.565H184.835V237.984H196.257V226.565Z" fill="#007AD1"/>
<path d="M177.177 226.565H165.755V237.984H177.177V226.565Z" fill="#007AD1"/>
<path d="M438.983 36.7204L361.991 113.694V162.614H364.596V114.772L439 40.3865L438.983 36.7204Z" fill="#007AD1"/>
<path d="M359.931 199.309H357.325V236.51H395.842L412.338 220.017L410.496 218.176L394.763 233.905H359.931V199.309Z" fill="#007AD1"/>
<path d="M389.932 152.178H387.327V172.689L426.893 212.245L428.735 210.403L389.932 171.61V152.178Z" fill="#007AD1"/>
<path d="M430.527 83.4521H427.922V144.572L416.508 155.983L418.35 157.825L430.527 145.65V83.4521Z" fill="#007AD1"/>
<path d="M304.632 226.17H271.666L253.77 244.063L255.611 245.904L272.745 228.775H304.632V226.17Z" fill="#007AD1"/>
<path d="M419.225 251.761H359.379L346.883 264.254L348.725 266.096L360.458 254.365H419.225V251.761Z" fill="#007AD1"/>
<path d="M278.174 244.247L276.333 246.088L299.682 269.431H315.69V266.827H300.76L278.174 244.247Z" fill="#007AD1"/>
<path d="M397.526 287.008L357.889 326.635V396H360.494V327.714L399.368 288.849L397.526 287.008Z" fill="#007AD1"/>
<path d="M388.539 7.69659H385.935V47.0224L342.008 90.9378L343.85 92.7793L388.539 48.1003V7.69659Z" fill="#007AD1"/>
<path d="M389.771 253.063H387.166V267.642L332.019 322.776V343.762H334.623V323.855L389.771 268.721V253.063Z" fill="#007AD1"/>
<path d="M182.545 245.202H179.939V270.038L198.756 288.849L200.597 287.008L182.545 268.96V245.202Z" fill="#007AD1"/>
<path d="M224.268 274.735L222.426 276.576L262.465 316.605H291.379V314.001H263.543L224.268 274.735Z" fill="#007AD1"/>
</svg>
