<svg width="453" height="293" viewBox="0 0 453 293" fill="none" xmlns="http://www.w3.org/2000/svg">
<g clip-path="url(#clip0_192_403)">
<path d="M277.509 268.129C277.509 265.248 275.173 262.912 272.291 262.912C269.409 262.912 267.072 265.248 267.072 268.129C267.072 271.011 269.409 273.346 272.291 273.346C275.173 273.346 277.509 271.011 277.509 268.129Z" fill="#EAF1FF"/>
<path d="M394.568 268.24C394.568 265.358 392.232 263.022 389.349 263.022C386.467 263.022 384.131 265.358 384.131 268.24C384.131 271.12 386.467 273.457 389.349 273.457C392.232 273.457 394.568 271.12 394.568 268.24Z" fill="#EAF1FF"/>
<path d="M354.083 285.147C354.083 282.266 351.746 279.93 348.864 279.93C345.982 279.93 343.646 282.266 343.646 285.147C343.646 288.029 345.982 290.365 348.864 290.365C351.746 290.365 354.083 288.029 354.083 285.147Z" fill="#EAF1FF"/>
<path d="M364.812 245.202C364.812 242.321 362.476 239.985 359.594 239.985C356.711 239.985 354.375 242.321 354.375 245.202C354.375 248.084 356.711 250.42 359.594 250.42C362.476 250.42 364.812 248.084 364.812 245.202Z" fill="#EAF1FF"/>
<path d="M419.903 268.24C419.903 265.358 417.566 263.022 414.683 263.022C411.801 263.022 409.465 265.358 409.465 268.24C409.465 271.12 411.801 273.457 414.683 273.457C417.566 273.457 419.903 271.12 419.903 268.24Z" fill="#EAF1FF"/>
<path d="M218.895 268.097C218.895 265.215 216.559 262.88 213.677 262.88C210.794 262.88 208.458 265.215 208.458 268.097C208.458 270.978 210.794 273.314 213.677 273.314C216.559 273.314 218.895 270.978 218.895 268.097Z" fill="#EAF1FF"/>
<path d="M242.566 275.656C242.566 272.774 240.229 270.438 237.347 270.438C234.465 270.438 232.128 272.774 232.128 275.656C232.128 278.537 234.465 280.873 237.347 280.873C240.229 280.873 242.566 278.537 242.566 275.656Z" fill="#EAF1FF"/>
<path d="M174.983 264.455C174.983 261.574 172.646 259.238 169.763 259.238C166.882 259.238 164.545 261.574 164.545 264.455C164.545 267.337 166.882 269.672 169.763 269.672C172.646 269.672 174.983 267.337 174.983 264.455Z" fill="#EAF1FF"/>
<path d="M125.195 208.912C125.195 206.03 122.858 203.695 119.976 203.695C117.094 203.695 114.757 206.03 114.757 208.912C114.757 211.793 117.094 214.129 119.976 214.129C122.858 214.129 125.195 211.793 125.195 208.912Z" fill="#EAF1FF"/>
<path d="M103.383 184.899C103.383 182.017 101.047 179.681 98.1649 179.681C95.2826 179.681 92.9463 182.017 92.9463 184.899C92.9463 187.78 95.2826 190.116 98.1649 190.116C101.047 190.116 103.383 187.78 103.383 184.899Z" fill="#EAF1FF"/>
<path d="M25.3053 195.867C25.3053 192.986 22.9689 190.649 20.0867 190.649C17.2046 190.649 14.8682 192.986 14.8682 195.867C14.8682 198.749 17.2046 201.084 20.0867 201.084C22.9689 201.084 25.3053 198.749 25.3053 195.867Z" fill="#EAF1FF"/>
<path d="M57.8777 214.129C57.8777 211.248 55.5413 208.912 52.6592 208.912C49.7769 208.912 47.4404 211.248 47.4404 214.129C47.4404 217.011 49.7769 219.347 52.6592 219.347C55.5413 219.347 57.8777 217.011 57.8777 214.129Z" fill="#EAF1FF"/>
<path d="M136.289 106.083C136.289 103.202 133.952 100.866 131.07 100.866C128.188 100.866 125.852 103.202 125.852 106.083C125.852 108.965 128.188 111.301 131.07 111.301C133.952 111.301 136.289 108.965 136.289 106.083Z" fill="#EAF1FF"/>
<path d="M144.814 57.8646C144.814 54.9831 142.477 52.6473 139.595 52.6473C136.713 52.6473 134.376 54.9831 134.376 57.8646C134.376 60.7461 136.713 63.0818 139.595 63.0818C142.477 63.0818 144.814 60.7461 144.814 57.8646Z" fill="#EAF1FF"/>
<path d="M76.9401 16.9735C76.9401 14.092 74.6037 11.7562 71.7215 11.7562C68.8393 11.7562 66.5029 14.092 66.5029 16.9735C66.5029 19.855 68.8393 22.1913 71.7215 22.1913C74.6037 22.1913 76.9401 19.855 76.9401 16.9735Z" fill="#EAF1FF"/>
<path d="M104.622 16.8591C104.622 13.9776 102.285 11.6412 99.4031 11.6412C96.5209 11.6412 94.1846 13.9776 94.1846 16.8591C94.1846 19.7405 96.5209 22.0763 99.4031 22.0763C102.285 22.0763 104.622 19.7405 104.622 16.8591Z" fill="#EAF1FF"/>
<path d="M268.908 202.875C268.908 199.993 266.571 197.658 263.689 197.658C260.807 197.658 258.471 199.993 258.471 202.875C258.471 205.756 260.807 208.092 263.689 208.092C266.571 208.092 268.908 205.756 268.908 202.875Z" fill="#EAF1FF"/>
<path d="M272.208 183.318C272.208 180.437 269.871 178.101 266.989 178.101C264.107 178.101 261.771 180.437 261.771 183.318C261.771 186.2 264.107 188.536 266.989 188.536C269.871 188.536 272.208 186.2 272.208 183.318Z" fill="#EAF1FF"/>
<path d="M328.058 204.526C328.058 201.645 325.721 199.308 322.839 199.308C319.956 199.308 317.62 201.645 317.62 204.526C317.62 207.407 319.956 209.744 322.839 209.744C325.721 209.744 328.058 207.407 328.058 204.526Z" fill="#EAF1FF"/>
<path d="M300.218 206.107C300.218 203.225 297.881 200.89 294.999 200.89C292.117 200.89 289.78 203.225 289.78 206.107C289.78 208.988 292.117 211.324 294.999 211.324C297.881 211.324 300.218 208.988 300.218 206.107Z" fill="#EAF1FF"/>
<path d="M357.782 221.685C357.782 218.804 355.445 216.468 352.563 216.468C349.681 216.468 347.345 218.804 347.345 221.685C347.345 224.567 349.681 226.902 352.563 226.902C355.445 226.902 357.782 224.567 357.782 221.685Z" fill="#EAF1FF"/>
<path d="M369.025 176.82C369.025 173.939 366.689 171.603 363.806 171.603C360.924 171.603 358.588 173.939 358.588 176.82C358.588 179.702 360.924 182.038 363.806 182.038C366.689 182.038 369.025 179.702 369.025 176.82Z" fill="#EAF1FF"/>
<path d="M419.739 129.988C419.739 127.107 417.403 124.771 414.521 124.771C411.639 124.771 409.302 127.107 409.302 129.988C409.302 132.869 411.639 135.206 414.521 135.206C417.403 135.206 419.739 132.869 419.739 129.988Z" fill="#EAF1FF"/>
<path d="M436.647 103.442C436.647 100.56 434.311 98.2241 431.429 98.2241C428.546 98.2241 426.21 100.56 426.21 103.442C426.21 106.323 428.546 108.659 431.429 108.659C434.311 108.659 436.647 106.323 436.647 103.442Z" fill="#EAF1FF"/>
<path d="M448.442 83.4516C448.442 80.5701 446.106 78.2343 443.223 78.2343C440.341 78.2343 438.005 80.5701 438.005 83.4516C438.005 86.3331 440.341 88.6688 443.223 88.6688C446.106 88.6688 448.442 86.3331 448.442 83.4516Z" fill="#EAF1FF"/>
<path d="M329.069 159.207C329.069 156.326 326.733 153.99 323.85 153.99C320.968 153.99 318.632 156.326 318.632 159.207C318.632 162.089 320.968 164.424 323.85 164.424C326.733 164.424 329.069 162.089 329.069 159.207Z" fill="#EAF1FF"/>
<path d="M302.357 139.955C302.357 137.074 300.02 134.738 297.138 134.738C294.255 134.738 291.919 137.074 291.919 139.955C291.919 142.837 294.255 145.173 297.138 145.173C300.02 145.173 302.357 142.837 302.357 139.955Z" fill="#EAF1FF"/>
<path d="M329.069 89.0113C329.069 86.1298 326.733 83.794 323.85 83.794C320.968 83.794 318.632 86.1298 318.632 89.0113C318.632 91.8927 320.968 94.2285 323.85 94.2285C326.733 94.2285 329.069 91.8927 329.069 89.0113Z" fill="#EAF1FF"/>
<path d="M347.297 193.085C347.297 190.204 344.961 187.867 342.079 187.867C339.197 187.867 336.86 190.204 336.86 193.085C336.86 195.966 339.197 198.302 342.079 198.302C344.961 198.302 347.297 195.966 347.297 193.085Z" fill="#EAF1FF"/>
<path d="M357.706 157.396C357.706 154.515 355.37 152.179 352.488 152.179C349.605 152.179 347.269 154.515 347.269 157.396C347.269 160.278 349.605 162.613 352.488 162.613C355.37 162.613 357.706 160.278 357.706 157.396Z" fill="#EAF1FF"/>
<path d="M396 221.685C396 218.804 393.664 216.468 390.782 216.468C387.899 216.468 385.562 218.804 385.562 221.685C385.562 224.567 387.899 226.902 390.782 226.902C393.664 226.902 396 224.567 396 221.685Z" fill="#EAF1FF"/>
<path d="M413.614 202.477C413.614 199.595 411.278 197.26 408.395 197.26C405.513 197.26 403.177 199.595 403.177 202.477C403.177 205.358 405.513 207.694 408.395 207.694C411.278 207.694 413.614 205.358 413.614 202.477Z" fill="#EAF1FF"/>
<path d="M242.84 203.544C242.84 200.662 240.504 198.326 237.622 198.326C234.74 198.326 232.403 200.662 232.403 203.544C232.403 206.425 234.74 208.761 237.622 208.761C240.504 208.761 242.84 206.425 242.84 203.544Z" fill="#EAF1FF"/>
<path d="M221.913 185.587C221.913 182.705 219.576 180.369 216.694 180.369C213.812 180.369 211.476 182.705 211.476 185.587C211.476 188.468 213.812 190.804 216.694 190.804C219.576 190.804 221.913 188.468 221.913 185.587Z" fill="#EAF1FF"/>
<path d="M245.359 128.577C245.359 125.695 243.022 123.359 240.139 123.359C237.257 123.359 234.921 125.695 234.921 128.577C234.921 131.458 237.257 133.794 240.139 133.794C243.022 133.794 245.359 131.458 245.359 128.577Z" fill="#EAF1FF"/>
<path d="M190.763 118.064C190.763 115.183 188.427 112.847 185.545 112.847C182.663 112.847 180.326 115.183 180.326 118.064C180.326 120.946 182.663 123.282 185.545 123.282C188.427 123.282 190.763 120.946 190.763 118.064Z" fill="#EAF1FF"/>
<path d="M255.893 123.282C255.893 120.4 253.557 118.064 250.675 118.064C247.792 118.064 245.456 120.4 245.456 123.282C245.456 126.163 247.792 128.499 250.675 128.499C253.557 128.499 255.893 126.163 255.893 123.282Z" fill="#EAF1FF"/>
<path d="M275.458 118.48C275.458 115.599 273.121 113.262 270.239 113.262C267.357 113.262 265.021 115.599 265.021 118.48C265.021 121.361 267.357 123.697 270.239 123.697C273.121 123.697 275.458 121.361 275.458 118.48Z" fill="#EAF1FF"/>
<path d="M268.849 73.0442C268.849 70.1627 266.512 67.827 263.63 67.827C260.748 67.827 258.411 70.1627 258.411 73.0442C258.411 75.9257 260.748 78.2615 263.63 78.2615C266.512 78.2615 268.849 75.9257 268.849 73.0442Z" fill="#EAF1FF"/>
<path d="M342.079 -0.254435C342.079 -3.13593 339.742 -5.47167 336.86 -5.47167C333.978 -5.47167 331.642 -3.13593 331.642 -0.254435C331.642 2.62706 333.978 4.96283 336.86 4.96283C339.742 4.96283 342.079 2.62706 342.079 -0.254435Z" fill="#EAF1FF"/>
<path d="M421.227 31.6623C421.227 28.7808 418.89 26.445 416.008 26.445C413.126 26.445 410.789 28.7808 410.789 31.6623C410.789 34.5437 413.126 36.8795 416.008 36.8795C418.89 36.8795 421.227 34.5437 421.227 31.6623Z" fill="#EAF1FF"/>
<path d="M289.327 18.6955C289.327 15.814 286.99 13.4782 284.108 13.4782C281.226 13.4782 278.89 15.814 278.89 18.6955C278.89 21.577 281.226 23.9127 284.108 23.9127C286.99 23.9127 289.327 21.577 289.327 18.6955Z" fill="#EAF1FF"/>
<path d="M271.932 29.1307C271.932 26.2492 269.595 23.9128 266.713 23.9128C263.831 23.9128 261.494 26.2492 261.494 29.1307C261.494 32.0122 263.831 34.3479 266.713 34.3479C269.595 34.3479 271.932 32.0122 271.932 29.1307Z" fill="#EAF1FF"/>
<path d="M262.769 201.954L244.377 220.342H140.242L60.2754 300.288L62.1174 302.13L141.321 222.946H245.456L264.611 203.795L262.769 201.954Z" fill="#EAF1FF"/>
<path d="M156.501 278.784H82.3252V281.388H155.422L176.696 302.657L178.538 300.816L156.501 278.784Z" fill="#EAF1FF"/>
<path d="M273.211 267.209L271.369 269.05L304.076 301.748V396H306.68V300.67L273.211 267.209Z" fill="#EAF1FF"/>
<path d="M214.597 267.176L212.756 269.017L268.37 324.618H305.379V322.013H269.448L214.597 267.176Z" fill="#EAF1FF"/>
<path d="M184.138 -57.0017H181.533V71.8253L239.219 129.497L241.061 127.656L184.138 70.7469V-57.0017Z" fill="#EAF1FF"/>
<path d="M194.674 -57.0016H192.068V66.5311L249.755 124.203L251.597 122.361L194.674 65.4527V-57.0016Z" fill="#EAF1FF"/>
<path d="M214.237 -56.2471H211.632V61.7294L269.318 119.4L271.159 117.559L214.237 60.651V-56.2471Z" fill="#EAF1FF"/>
<path d="M335.939 -1.17541L287.171 47.5818H212.935V50.1859H288.25L337.781 0.666153L335.939 -1.17541Z" fill="#EAF1FF"/>
<path d="M266.713 27.143H212.935V29.7471H266.713V27.143Z" fill="#EAF1FF"/>
<path d="M284.108 17.3935H212.935V19.9976H284.108V17.3935Z" fill="#EAF1FF"/>
<path d="M130.15 105.162L27.7334 207.553V280.086H30.3384V208.632L131.991 107.004L130.15 105.162Z" fill="#EAF1FF"/>
<path d="M182.835 10.0357H158.494V122.743L97.2441 183.978L99.0856 185.819L161.1 123.821V12.6398H182.835V10.0357Z" fill="#EAF1FF"/>
<path d="M100.323 15.9385L98.4814 17.7801L118.411 37.7037V74.8189H159.797V72.2148H121.016V36.6253L100.323 15.9385Z" fill="#EAF1FF"/>
<path d="M53.9614 214.129H51.3564V280.086H53.9614V214.129Z" fill="#EAF1FF"/>
<path d="M120.897 162.173L119.055 164.014L159.897 204.846H237.622V202.241H160.975L120.897 162.173Z" fill="#EAF1FF"/>
<path d="M110.6 -57.0017H107.995V0.284534L138.293 30.5747V57.8646H140.898V29.4963L110.6 -0.793892V-57.0017Z" fill="#EAF1FF"/>
<path d="M132.281 150.791L130.439 152.632L164.705 186.889H216.694V184.284H165.783L132.281 150.791Z" fill="#EAF1FF"/>
<path d="M388.428 267.318L332.957 322.776V396H335.562V323.855L390.27 269.16L388.428 267.318Z" fill="#EAF1FF"/>
<path d="M413.763 267.318L358.291 322.776V396H360.896V323.855L415.605 269.16L413.763 267.318Z" fill="#EAF1FF"/>
<path d="M351.642 220.765L328.501 243.9H154.329L119.055 279.166L120.897 281.007L155.408 246.504H329.58L353.484 222.606L351.642 220.765Z" fill="#EAF1FF"/>
<path d="M278.048 157.905H186.231V185.587H188.837V160.51H276.969L321.918 205.447L323.76 203.605L278.048 157.905Z" fill="#EAF1FF"/>
<path d="M453 50.7894L389.479 114.295V221.685H392.084V115.373L452.983 54.4889L453 50.7894Z" fill="#EAF1FF"/>
<path d="M452.983 22.0712L362.504 112.529V176.82H365.109V113.607L453 25.7373L452.983 22.0712Z" fill="#EAF1FF"/>
<path d="M452.984 6.39453H389.478V41.662L322.548 108.576V159.208H325.153V109.654L392.083 42.7398V8.99863H452.984V6.39453Z" fill="#EAF1FF"/>
<path d="M417.31 7.6966H414.705V31.6622H417.31V7.6966Z" fill="#EAF1FF"/>
<path d="M343.381 90.8913H340.776V192.747H343.381V90.8913Z" fill="#EAF1FF"/>
<path d="M365.109 -57.0017H362.504V31.1232L295.835 97.7752V139.955H298.44V98.8536L365.109 32.2011V-57.0017Z" fill="#EAF1FF"/>
<path d="M409.714 201.556L407.872 203.397L431.923 227.442V286.178L384.26 333.829V396H386.865V334.908L434.527 287.257V226.363L409.714 201.556Z" fill="#EAF1FF"/>
<path d="M415.823 128.915H413.218V158.84L440.511 186.126V256.001L432.304 264.206L434.146 266.048L443.116 257.079V185.048L415.823 157.761V128.915Z" fill="#EAF1FF"/>
<path d="M432.731 103.441H430.126V175.205H432.731V103.441Z" fill="#EAF1FF"/>
<path d="M275.657 244.282L273.815 246.123L314.153 286.45H348.864V283.845H315.232L275.657 244.282Z" fill="#EAF1FF"/>
<path d="M362.886 6.77553L297.903 71.7427H263.63V74.3468H298.981L364.728 8.61707L362.886 6.77553Z" fill="#EAF1FF"/>
<path d="M186.466 117.35L184.624 119.192L225.571 160.128L227.413 158.287L186.466 117.35Z" fill="#EAF1FF"/>
<path d="M294.078 205.186L254.973 244.282L256.814 246.123L295.92 207.027L294.078 205.186Z" fill="#EAF1FF"/>
<path d="M255.726 170.3H197.532V185.587H200.138V172.905H254.647L266.068 184.322L267.909 182.481L255.726 170.3Z" fill="#EAF1FF"/>
<path d="M170.343 263.535L168.501 265.376L209.261 306.126H250.412V303.522H210.34L170.343 263.535Z" fill="#EAF1FF"/>
<path d="M227.413 244.282L225.571 246.123L281.302 301.84L283.144 299.998L227.413 244.282Z" fill="#EAF1FF"/>
<path d="M433.225 243.9H359.594V246.504H433.225V243.9Z" fill="#EAF1FF"/>
<path d="M72.6422 16.0529L70.8008 17.8945L118.792 65.8744L120.634 64.0329L72.6422 16.0529Z" fill="#EAF1FF"/>
<path d="M119.976 207.61H75.6377V255.035H78.2424V210.214H119.976V207.61Z" fill="#EAF1FF"/>
<path d="M244.51 -8.00618H226.965V9.53467H244.51V-8.00618Z" fill="#EAF1FF"/>
<path d="M151.921 -8.9413H134.376V8.599H151.921V-8.9413Z" fill="#EAF1FF"/>
<path d="M104.49 73.9806H86.9453V91.5209H104.49V73.9806Z" fill="#EAF1FF"/>
<path d="M179.755 167.031H162.21V174.436H179.755V167.031Z" fill="#EAF1FF"/>
<path d="M179.755 155.505H162.21V162.909H179.755V155.505Z" fill="#EAF1FF"/>
<path d="M179.755 143.979H162.21V151.383H179.755V143.979Z" fill="#EAF1FF"/>
<path d="M272.403 -8.00618H254.857V9.53467H272.403V-8.00618Z" fill="#EAF1FF"/>
<path d="M250.155 55.0295H232.61V72.5698H250.155V55.0295Z" fill="#EAF1FF"/>
<path d="M283.67 136.245H266.125V153.785H283.67V136.245Z" fill="#EAF1FF"/>
<path d="M327.404 218.703H309.859V236.243H327.404V218.703Z" fill="#EAF1FF"/>
<path d="M338.463 259.359H320.918V276.899H338.463V259.359Z" fill="#EAF1FF"/>
<path d="M319.901 106.764H302.356V124.304H319.901V106.764Z" fill="#EAF1FF"/>
<path d="M160.003 292.966H142.458V310.507H160.003V292.966Z" fill="#EAF1FF"/>
<path d="M131.07 179.765H113.525V197.306H131.07V179.765Z" fill="#EAF1FF"/>
<path d="M387.348 -9.14458H376.67V1.52997H387.348V-9.14458Z" fill="#EAF1FF"/>
<path d="M404.65 -9.14458H393.973V1.52997H404.65V-9.14458Z" fill="#EAF1FF"/>
<path d="M421.953 -9.14458H411.275V1.52997H421.953V-9.14458Z" fill="#EAF1FF"/>
<path d="M356.929 84.3104L349.379 91.8588L356.929 99.4073L364.479 91.8588L356.929 84.3104Z" fill="#EAF1FF"/>
<path d="M367.955 73.2871L360.404 80.8356L367.955 88.384L375.505 80.8356L367.955 73.2871Z" fill="#EAF1FF"/>
<path d="M302.299 -57.0017H299.694V-0.538001H235.737V2.06665H302.299V-57.0017Z" fill="#EAF1FF"/>
<path d="M175.962 -1.57003C175.962 -5.64148 172.661 -8.94132 168.589 -8.94132C164.517 -8.94132 161.216 -5.64148 161.216 -1.57003C161.216 2.50086 164.517 5.80127 168.589 5.80127C172.661 5.80127 175.962 2.50086 175.962 -1.57003Z" fill="#EAF1FF"/>
<path d="M352.015 -57.0016H349.41V1.88947L288.787 62.4976H241.382V65.1017H289.865L352.015 2.96734V-57.0016Z" fill="#EAF1FF"/>
<path d="M172.285 11.6413H169.681V170.734H172.285V11.6413Z" fill="#EAF1FF"/>
<path d="M171.903 82.531L170.062 84.3726L232.022 146.317H274.897V143.713H233.1L171.903 82.531Z" fill="#EAF1FF"/>
<path d="M285.666 93.1535C285.666 87.5173 281.096 82.9477 275.458 82.9477C269.82 82.9477 265.25 87.5173 265.25 93.1535C265.25 98.7896 269.82 103.359 275.458 103.359C281.096 103.359 285.666 98.7896 285.666 93.1535Z" fill="#EAF1FF"/>
<path d="M382.835 199.308C382.835 193.672 378.265 189.103 372.627 189.103C366.99 189.103 362.419 193.672 362.419 199.308C362.419 204.945 366.99 209.514 372.627 209.514C378.265 209.514 382.835 204.945 382.835 199.308Z" fill="#EAF1FF"/>
<path d="M372.012 265.175C372.012 259.538 367.442 254.969 361.804 254.969C356.166 254.969 351.596 259.538 351.596 265.175C351.596 270.811 356.166 275.38 361.804 275.38C367.442 275.38 372.012 270.811 372.012 265.175Z" fill="#EAF1FF"/>
<path d="M372.896 -57.0016H370.291V10.0737L377.738 17.5186V33.8089L323.442 88.0908L325.284 89.9324L380.343 34.8874V16.4408L372.896 8.99529V-57.0016Z" fill="#EAF1FF"/>
<path d="M312.431 115.534H309.826V193.085H312.431V115.534Z" fill="#EAF1FF"/>
<path d="M443.116 7.69662H440.511V21.1026L351.185 110.406V157.396H353.79V111.485L443.116 22.1805V7.69662Z" fill="#EAF1FF"/>
<path d="M82.3241 190.804C82.3241 184.95 77.5772 180.204 71.7216 180.204C65.866 180.204 61.1191 184.95 61.1191 190.804C61.1191 196.659 65.866 201.404 71.7216 201.404C77.5772 201.404 82.3241 196.659 82.3241 190.804Z" fill="#EAF1FF"/>
<path d="M158.572 102.134L70.8008 189.883L72.6422 191.725L160.414 103.976L158.572 102.134Z" fill="#EAF1FF"/>
<path d="M159.797 85.0791H129.061L19.166 194.946L21.0079 196.788L130.139 87.6832H159.797V85.0791Z" fill="#EAF1FF"/>
<path d="M152.534 286.627H97.9193L83.7959 300.747L85.6379 302.588L98.998 289.231H149.929V301.737H152.534V286.627Z" fill="#EAF1FF"/>
<path d="M136.828 187.233H122.298V189.838H135.75L168.493 222.573L170.335 220.732L136.828 187.233Z" fill="#EAF1FF"/>
<path d="M221.913 230.973H148.629L100.424 279.166L102.266 281.007L149.708 233.577H221.913V230.973Z" fill="#EAF1FF"/>
<path d="M227.624 226.565H216.202V237.984H227.624V226.565Z" fill="#EAF1FF"/>
<path d="M420.523 287.929L412.447 279.854L404.37 287.929L412.447 296.003L420.523 287.929Z" fill="#EAF1FF"/>
<path d="M213.676 279.854L205.6 287.929L213.676 296.003L221.752 287.929L213.676 279.854Z" fill="#EAF1FF"/>
<path d="M408.865 299.584L400.788 291.51L392.712 299.584L400.788 307.659L408.865 299.584Z" fill="#EAF1FF"/>
<path d="M383.004 156.904H371.582V168.323H383.004V156.904Z" fill="#EAF1FF"/>
<path d="M408.303 146.469H396.881V157.888H408.303V146.469Z" fill="#EAF1FF"/>
<path d="M383.004 139.463H371.582V150.882H383.004V139.463Z" fill="#EAF1FF"/>
<path d="M210.257 226.565H198.835V237.984H210.257V226.565Z" fill="#EAF1FF"/>
<path d="M191.177 226.565H179.755V237.984H191.177V226.565Z" fill="#EAF1FF"/>
<path d="M452.983 36.7204L375.991 113.694V162.614H378.596V114.772L453 40.3865L452.983 36.7204Z" fill="#EAF1FF"/>
<path d="M373.931 199.309H371.325V236.51H409.842L426.338 220.017L424.496 218.176L408.763 233.905H373.931V199.309Z" fill="#EAF1FF"/>
<path d="M403.932 152.178H401.327V172.689L440.893 212.245L442.735 210.403L403.932 171.61V152.178Z" fill="#EAF1FF"/>
<path d="M444.527 83.4521H441.922V144.572L430.508 155.983L432.35 157.825L444.527 145.65V83.4521Z" fill="#EAF1FF"/>
<path d="M318.632 226.17H285.666L267.77 244.063L269.611 245.904L286.745 228.775H318.632V226.17Z" fill="#EAF1FF"/>
<path d="M433.225 251.761H373.379L360.883 264.254L362.725 266.096L374.458 254.365H433.225V251.761Z" fill="#EAF1FF"/>
<path d="M292.174 244.247L290.333 246.088L313.682 269.431H329.69V266.827H314.76L292.174 244.247Z" fill="#EAF1FF"/>
<path d="M411.526 287.008L371.889 326.635V396H374.494V327.714L413.368 288.849L411.526 287.008Z" fill="#EAF1FF"/>
<path d="M402.539 7.69659H399.935V47.0224L356.008 90.9378L357.85 92.7793L402.539 48.1003V7.69659Z" fill="#EAF1FF"/>
<path d="M403.771 253.063H401.166V267.642L346.019 322.776V343.762H348.623V323.855L403.771 268.721V253.063Z" fill="#EAF1FF"/>
<path d="M196.545 245.202H193.939V270.038L212.756 288.849L214.597 287.008L196.545 268.96V245.202Z" fill="#EAF1FF"/>
<path d="M238.268 274.735L236.426 276.576L276.465 316.605H305.379V314.001H277.543L238.268 274.735Z" fill="#EAF1FF"/>
</g>
<defs>
<clipPath id="clip0_192_403">
<rect width="453" height="453" fill="white" transform="translate(0 -57)"/>
</clipPath>
</defs>
</svg>
